<svg xmlns="http://www.w3.org/2000/svg" viewBox="0 0 800 560" font-family="sans-serif">
<title>관리자 메뉴 - 게시판 관리 화면</title>
<rect x="0" y="0" width="800" height="560" fill="#ffffff"/>
  <rect x="20" y="20" width="760" height="30" rx="0" fill="none" stroke="#333" stroke-width="1.5"/>
  <text x="35" y="40" font-size="13" text-anchor="start" font-weight="normal" fill="#111">관리자 &gt; 게시판 관리</text>
  <rect x="650" y="24" width="120" height="22" rx="6" fill="none" stroke="#333" stroke-width="1.5"/>
  <text x="710.0" y="38.85" font-size="11" text-anchor="middle" font-weight="normal" fill="#111">+ 게시판 생성</text>
  <rect x="20" y="60" width="760" height="190" rx="0" fill="none" stroke="#333" stroke-width="1.5"/>
  <text x="45" y="85" font-size="12" text-anchor="start" font-weight="bold" fill="#111">게시판명</text>
  <text x="220" y="85" font-size="12" text-anchor="start" font-weight="bold" fill="#111">최소등급</text>
  <text x="340" y="85" font-size="12" text-anchor="start" font-weight="bold" fill="#111">사용여부</text>
  <text x="460" y="85" font-size="12" text-anchor="start" font-weight="bold" fill="#111">관리</text>
  <line x1="20" y1="95" x2="780" y2="95" stroke="#666" stroke-width="1"/>
  <text x="45" y="120" font-size="12" text-anchor="start" font-weight="normal" fill="#111">자유게시판</text>
  <text x="220" y="120" font-size="12" text-anchor="start" font-weight="normal" fill="#111">준회원</text>
  <text x="340" y="120" font-size="12" text-anchor="start" font-weight="normal" fill="#111">활성</text>
  <rect x="455" y="104" width="55" height="22" rx="6" fill="none" stroke="#333" stroke-width="1.5"/>
  <text x="482.5" y="118.85" font-size="11" text-anchor="middle" font-weight="normal" fill="#111">수정</text>
  <rect x="520" y="104" width="55" height="22" rx="6" fill="none" stroke="#333" stroke-width="1.5"/>
  <text x="547.5" y="118.85" font-size="11" text-anchor="middle" font-weight="normal" fill="#111">삭제</text>
  <text x="45" y="154" font-size="12" text-anchor="start" font-weight="normal" fill="#111">정회원 게시판</text>
  <text x="220" y="154" font-size="12" text-anchor="start" font-weight="normal" fill="#111">정회원</text>
  <text x="340" y="154" font-size="12" text-anchor="start" font-weight="normal" fill="#111">활성</text>
  <rect x="455" y="138" width="55" height="22" rx="6" fill="none" stroke="#333" stroke-width="1.5"/>
  <text x="482.5" y="152.85" font-size="11" text-anchor="middle" font-weight="normal" fill="#111">수정</text>
  <rect x="520" y="138" width="55" height="22" rx="6" fill="none" stroke="#333" stroke-width="1.5"/>
  <text x="547.5" y="152.85" font-size="11" text-anchor="middle" font-weight="normal" fill="#111">삭제</text>
  <text x="45" y="188" font-size="12" text-anchor="start" font-weight="normal" fill="#111">운영진 전용</text>
  <text x="220" y="188" font-size="12" text-anchor="start" font-weight="normal" fill="#111">운영진</text>
  <text x="340" y="188" font-size="12" text-anchor="start" font-weight="normal" fill="#111">활성</text>
  <rect x="455" y="172" width="55" height="22" rx="6" fill="none" stroke="#333" stroke-width="1.5"/>
  <text x="482.5" y="186.85" font-size="11" text-anchor="middle" font-weight="normal" fill="#111">수정</text>
  <rect x="520" y="172" width="55" height="22" rx="6" fill="none" stroke="#333" stroke-width="1.5"/>
  <text x="547.5" y="186.85" font-size="11" text-anchor="middle" font-weight="normal" fill="#111">삭제</text>
  <text x="45" y="222" font-size="12" text-anchor="start" font-weight="normal" fill="#111">이전 공지(보관)</text>
  <text x="220" y="222" font-size="12" text-anchor="start" font-weight="normal" fill="#111">운영진</text>
  <text x="340" y="222" font-size="12" text-anchor="start" font-weight="normal" fill="#111">비활성</text>
  <rect x="455" y="206" width="55" height="22" rx="6" fill="none" stroke="#333" stroke-width="1.5"/>
  <text x="482.5" y="220.85" font-size="11" text-anchor="middle" font-weight="normal" fill="#111">수정</text>
  <rect x="520" y="206" width="55" height="22" rx="6" fill="none" stroke="#333" stroke-width="1.5"/>
  <text x="547.5" y="220.85" font-size="11" text-anchor="middle" font-weight="normal" fill="#111">삭제</text>
  <text x="35" y="280" font-size="11" text-anchor="start" font-weight="normal" fill="#666">(생성/수정 시 하단 또는 모달 폼)</text>
  <rect x="20" y="290" width="760" height="265" rx="0" fill="none" stroke="#333" stroke-width="1.5"/>
  <text x="50" y="325" font-size="13" text-anchor="start" font-weight="normal" fill="#111">게시판명</text>
  <rect x="200" y="307" width="400" height="28" rx="2" fill="none" stroke="#666" stroke-width="1"/>
  <text x="50" y="370" font-size="13" text-anchor="start" font-weight="normal" fill="#111">설명</text>
  <rect x="200" y="352" width="400" height="28" rx="2" fill="none" stroke="#666" stroke-width="1"/>
  <text x="50" y="415" font-size="13" text-anchor="start" font-weight="normal" fill="#111">최소등급</text>
  <rect x="200" y="397" width="140" height="28" rx="2" fill="none" stroke="#666" stroke-width="1"/>
  <text x="270" y="415" font-size="11" text-anchor="middle" font-weight="normal" fill="#111">정회원 ▾</text>
  <text x="50" y="460" font-size="13" text-anchor="start" font-weight="normal" fill="#111">사용여부</text>
  <text x="200" y="460" font-size="13" text-anchor="start" font-weight="normal" fill="#111">( ) 활성   ( ) 비활성</text>
  <rect x="340" y="505" width="100" height="36" rx="6" fill="none" stroke="#333" stroke-width="1.5"/>
  <text x="390.0" y="527.55" font-size="13" text-anchor="middle" font-weight="normal" fill="#111">저장</text>
  <rect x="460" y="505" width="100" height="36" rx="6" fill="none" stroke="#333" stroke-width="1.5"/>
  <text x="510.0" y="527.55" font-size="13" text-anchor="middle" font-weight="normal" fill="#111">취소</text>
</svg>
